<svg id="visual" viewBox="0 0 900 600" width="900" height="600" xmlns="http://www.w3.org/2000/svg" xmlns:xlink="http://www.w3.org/1999/xlink" version="1.1"><g transform="translate(463.6484612152915 306.75379672871946)"><path d="M70.2 -111C88.6 -97.5 99.3 -73.9 104.9 -51C110.5 -28.2 110.9 -6.1 108.5 16C106 38.2 100.6 60.3 87.9 77.5C75.1 94.7 55 106.8 33.9 111.1C12.7 115.5 -9.6 111.9 -32.7 107.1C-55.7 102.2 -79.6 96 -99.1 81.4C-118.5 66.9 -133.5 44.1 -136.6 19.9C-139.6 -4.3 -130.8 -30 -118.1 -52.3C-105.4 -74.7 -88.9 -93.7 -68.6 -106.3C-48.3 -118.8 -24.1 -124.9 0.9 -126.3C26 -127.7 51.9 -124.4 70.2 -111" fill="#00a8b5"></path></g></svg>