<svg id="visual" viewBox="0 0 900 600" width="900" height="600" xmlns="http://www.w3.org/2000/svg" xmlns:xlink="http://www.w3.org/1999/xlink" version="1.1"><g transform="translate(450.2450310313127 301.58567444606695)"><path d="M103 -154.9C137.1 -138.3 170.9 -115.9 181.5 -85.1C192.1 -54.3 179.6 -15.1 167.4 19.4C155.2 54 143.3 84 125.3 113.4C107.3 142.8 83.1 171.7 53.2 179.7C23.4 187.7 -12.1 174.9 -45.2 161.7C-78.3 148.5 -109.1 134.8 -134 112.5C-158.9 90.2 -177.9 59.3 -183.9 25.7C-189.8 -7.8 -182.7 -44 -168.7 -78C-154.7 -112.1 -133.8 -143.9 -104.6 -162.7C-75.3 -181.5 -37.7 -187.3 -1.6 -184.8C34.4 -182.2 68.8 -171.5 103 -154.9" fill="#00a8b5"></path></g></svg>