<svg id="visual" viewBox="0 0 600 900" width="600" height="900" xmlns="http://www.w3.org/2000/svg" xmlns:xlink="http://www.w3.org/1999/xlink" version="1.1"><rect x="0" y="0" width="600" height="900" fill="#ffffff"></rect><defs><linearGradient id="grad1_0" x1="0%" y1="0%" x2="100%" y2="100%"><stop offset="30%" stop-color="#00a8b5" stop-opacity="1"></stop><stop offset="70%" stop-color="#00a8b5" stop-opacity="1"></stop></linearGradient></defs><defs><linearGradient id="grad1_1" x1="0%" y1="0%" x2="100%" y2="100%"><stop offset="30%" stop-color="#00a8b5" stop-opacity="1"></stop><stop offset="70%" stop-color="#9fd3d9" stop-opacity="1"></stop></linearGradient></defs><defs><linearGradient id="grad1_2" x1="0%" y1="0%" x2="100%" y2="100%"><stop offset="30%" stop-color="#ffffff" stop-opacity="1"></stop><stop offset="70%" stop-color="#9fd3d9" stop-opacity="1"></stop></linearGradient></defs><defs><linearGradient id="grad2_0" x1="0%" y1="0%" x2="100%" y2="100%"><stop offset="30%" stop-color="#00a8b5" stop-opacity="1"></stop><stop offset="70%" stop-color="#00a8b5" stop-opacity="1"></stop></linearGradient></defs><defs><linearGradient id="grad2_1" x1="0%" y1="0%" x2="100%" y2="100%"><stop offset="30%" stop-color="#9fd3d9" stop-opacity="1"></stop><stop offset="70%" stop-color="#00a8b5" stop-opacity="1"></stop></linearGradient></defs><defs><linearGradient id="grad2_2" x1="0%" y1="0%" x2="100%" y2="100%"><stop offset="30%" stop-color="#9fd3d9" stop-opacity="1"></stop><stop offset="70%" stop-color="#ffffff" stop-opacity="1"></stop></linearGradient></defs><g transform="translate(600, 0)"><path d="M0 459.7C-41.6 436.5 -83.1 413.2 -131 403.2C-178.9 393.2 -233.1 396.5 -270.2 371.9C-307.3 347.3 -327.2 295 -344.6 250.4C-362 205.8 -376.9 169 -395.6 128.6C-414.4 88.1 -437 44.1 -459.7 0L0 0Z" fill="#d0e9ec"></path><path d="M0 306.5C-27.7 291 -55.4 275.5 -87.3 268.8C-119.3 262.2 -155.4 264.3 -180.1 247.9C-204.9 231.6 -218.2 196.7 -229.8 166.9C-241.4 137.2 -251.3 112.7 -263.8 85.7C-276.3 58.7 -291.4 29.4 -306.5 0L0 0Z" fill="#68bec7"></path><path d="M0 153.2C-13.9 145.5 -27.7 137.7 -43.7 134.4C-59.6 131.1 -77.7 132.2 -90.1 124C-102.4 115.8 -109.1 98.3 -114.9 83.5C-120.7 68.6 -125.6 56.3 -131.9 42.9C-138.1 29.4 -145.7 14.7 -153.2 0L0 0Z" fill="#00a8b5"></path></g><g transform="translate(0, 900)"><path d="M0 -459.7C49.4 -457.2 98.8 -454.7 142.1 -437.2C185.3 -419.7 222.3 -387.1 258.6 -356C294.9 -324.9 330.4 -295.2 356 -258.6C381.5 -222 397.1 -178.4 412.8 -134.1C428.4 -89.8 444 -44.9 459.7 0L0 0Z" fill="#d0e9ec"></path><path d="M0 -306.5C32.9 -304.8 65.9 -303.2 94.7 -291.5C123.5 -279.8 148.2 -258 172.4 -237.3C196.6 -216.6 220.3 -196.8 237.3 -172.4C254.3 -148 264.8 -118.9 275.2 -89.4C285.6 -59.9 296 -29.9 306.5 0L0 0Z" fill="#68bec7"></path><path d="M0 -153.2C16.5 -152.4 32.9 -151.6 47.4 -145.7C61.8 -139.9 74.1 -129 86.2 -118.7C98.3 -108.3 110.1 -98.4 118.7 -86.2C127.2 -74 132.4 -59.5 137.6 -44.7C142.8 -29.9 148 -15 153.2 0L0 0Z" fill="#00a8b5"></path></g></svg>