<svg id="visual" viewBox="0 0 900 600" width="900" height="600" xmlns="http://www.w3.org/2000/svg" xmlns:xlink="http://www.w3.org/1999/xlink" version="1.1"><rect x="0" y="0" width="900" height="600" fill="#ffffff"></rect><defs><linearGradient id="grad1_0" x1="33.3%" y1="0%" x2="100%" y2="100%"><stop offset="20%" stop-color="#00a8b5" stop-opacity="1"></stop><stop offset="80%" stop-color="#00a8b5" stop-opacity="1"></stop></linearGradient></defs><defs><linearGradient id="grad1_1" x1="33.3%" y1="0%" x2="100%" y2="100%"><stop offset="20%" stop-color="#00a8b5" stop-opacity="1"></stop><stop offset="80%" stop-color="#9fd3d9" stop-opacity="1"></stop></linearGradient></defs><defs><linearGradient id="grad1_2" x1="33.3%" y1="0%" x2="100%" y2="100%"><stop offset="20%" stop-color="#ffffff" stop-opacity="1"></stop><stop offset="80%" stop-color="#9fd3d9" stop-opacity="1"></stop></linearGradient></defs><defs><linearGradient id="grad2_0" x1="0%" y1="0%" x2="66.7%" y2="100%"><stop offset="20%" stop-color="#00a8b5" stop-opacity="1"></stop><stop offset="80%" stop-color="#00a8b5" stop-opacity="1"></stop></linearGradient></defs><defs><linearGradient id="grad2_1" x1="0%" y1="0%" x2="66.7%" y2="100%"><stop offset="20%" stop-color="#9fd3d9" stop-opacity="1"></stop><stop offset="80%" stop-color="#00a8b5" stop-opacity="1"></stop></linearGradient></defs><defs><linearGradient id="grad2_2" x1="0%" y1="0%" x2="66.7%" y2="100%"><stop offset="20%" stop-color="#9fd3d9" stop-opacity="1"></stop><stop offset="80%" stop-color="#ffffff" stop-opacity="1"></stop></linearGradient></defs><g transform="translate(900, 0)"><path d="M0 459.7C-43.1 439.9 -86.3 420.2 -132.6 408C-178.8 395.8 -228.3 391.3 -268 368.9C-307.8 346.5 -338 306.3 -366.5 266.3C-395 226.2 -421.9 186.4 -437.2 142.1C-452.5 97.7 -456.1 48.9 -459.7 0L0 0Z" fill="#d0e9ec"></path><path d="M0 306.5C-28.8 293.3 -57.5 280.1 -88.4 272C-119.2 263.9 -152.2 260.9 -178.7 245.9C-205.2 231 -225.3 204.2 -244.3 177.5C-263.3 150.8 -281.3 124.3 -291.5 94.7C-301.7 65.1 -304.1 32.6 -306.5 0L0 0Z" fill="#68bec7"></path><path d="M0 153.2C-14.4 146.6 -28.8 140.1 -44.2 136C-59.6 131.9 -76.1 130.4 -89.3 123C-102.6 115.5 -112.7 102.1 -122.2 88.8C-131.7 75.4 -140.6 62.1 -145.7 47.4C-150.8 32.6 -152 16.3 -153.2 0L0 0Z" fill="#00a8b5"></path></g><g transform="translate(0, 600)"><path d="M0 -459.7C48.8 -451.3 97.6 -443 136.9 -421.3C176.2 -399.7 205.9 -364.7 247.5 -340.6C289 -316.5 342.2 -303.3 371.9 -270.2C401.6 -237.2 407.8 -184.3 418.5 -136C429.2 -87.6 444.4 -43.8 459.7 0L0 0Z" fill="#d0e9ec"></path><path d="M0 -306.5C32.5 -300.9 65.1 -295.3 91.3 -280.9C117.5 -266.4 137.3 -243.1 165 -227.1C192.6 -211 228.1 -202.2 247.9 -180.1C267.7 -158.1 271.8 -122.9 279 -90.6C286.1 -58.4 296.3 -29.2 306.5 0L0 0Z" fill="#68bec7"></path><path d="M0 -153.2C16.3 -150.4 32.5 -147.7 45.6 -140.4C58.7 -133.2 68.6 -121.6 82.5 -113.5C96.3 -105.5 114.1 -101.1 124 -90.1C133.9 -79.1 135.9 -61.4 139.5 -45.3C143.1 -29.2 148.1 -14.6 153.2 0L0 0Z" fill="#00a8b5"></path></g></svg>